<?xml version="1.0" encoding="utf-8"?>
<svg xmlns="http://www.w3.org/2000/svg" id="Layer_1" x="0" y="0" version="1.1" viewBox="0 0 660 265" xml:space="preserve">
  <style>
    .st0{fill:#ffffc2}.st1,.st2,.st3,.st4{fill:none;stroke:#ffffc2;stroke-width:7.200000e-02;stroke-linecap:round;stroke-linejoin:round;stroke-miterlimit:10}.st2,.st3,.st4{stroke:#840000;stroke-width:.432}.st3,.st4{stroke:#008484}.st4{stroke:#840000;stroke-width:.72}.st5{fill:#840000}.st6,.st7{fill:none;stroke:#008400;stroke-width:.432;stroke-linecap:round;stroke-linejoin:round;stroke-miterlimit:10}.st7{stroke:#000}.st8{fill:#008400}.st10,.st9{fill:none;stroke:#008400;stroke-width:.72;stroke-linecap:round;stroke-linejoin:round;stroke-miterlimit:10}.st10{stroke:#000084;stroke-width:.432}
  </style>
  <path d="M221.5 17.2h252v79.2h-252z" class="st0"/>
  <path d="M221.5 17.2h252v79.2h-252z" class="st1"/>
  <path d="M221.5 17.2h252v79.2h-252z" class="st2"/>
  <path d="M221.5 17.2h252v79.2h-252zM221.5 24.4h-7.2" class="st2"/>
  <path d="M227.1 22.3h-1.7l-.1 1.8.1-.2.4-.2h.8l.4.2.1.2.3.3v.9l-.3.3-.1.2-.4.1h-.8l-.4-.1-.1-.2M228.4 22.3l1.2 3.6 1.1-3.6" class="st3"/>
  <path d="M221.5 53.2h-7.2" class="st2"/>
  <path d="M226.6 52.9l.5.1.3.2.1.3v.6l-.1.3-.3.2-.3.1h-1.4v-3.6h1.2l.4.3.1.1.3.4v.2l-.3.4-.1.2-.4.2h-1.2" class="st3"/>
  <path d="M221.5 67.6h-7.2" class="st2"/>
  <path d="M227.5 68.8l-.1.2-.6.1h-.3l-.5-.1-.4-.4-.2-.3-.1-.7v-.5l.1-.7.2-.4.4-.2.5-.3h.3l.6.3.1.1M230.7 69.1H229v-3.6M232 69.1v-3.6M234 69.1l-1.5-2M234 65.5l-2 2.1" class="st3"/>
  <path d="M221.5 60.4h-7.2" class="st2"/>
  <path d="M225.4 61.9v-3.6h.9l.5.3.3.2.3.4.1.7v.5l-.1.7-.3.3-.3.4-.5.1h-.9M229 61.9v-3.6M230.7 61.9v-3.6l2.1 3.6v-3.6" class="st3"/>
  <path d="M221.5 46h-7.2" class="st2"/>
  <path d="M227.4 44.2l-.4-.3h-.5l-.5.3-.4.2-.2.4-.1.7v.5l.1.7.2.3.4.4.5.1h.3l.6-.1.1-.2V46h-.7" class="st3"/>
  <path d="M221.5 89.2h-7.2" class="st2"/>
  <path d="M227.4 87.4l-.4-.3h-.5l-.5.3-.4.2-.2.4-.1.7v.5l.1.7.2.3.4.4.5.1h.3l.6-.1.1-.2v-1.2h-.7M229 90.7v-3.6l2.1 3.6v-3.6M232.8 90.7v-3.6h.9l.5.3.4.2.1.4.2.7v.5l-.2.7-.1.3-.4.4-.5.1h-.9" class="st3"/>
  <path d="M221.5 31.6h-7.2" class="st2"/>
  <path d="M225.4 33.1v-3.6M225.4 31.3h2.1M227.5 33.1v-3.6M228.7 29.5l1.2 3.6 1.2-3.6" class="st3"/>
  <path d="M221.5 74.8h-7.2" class="st2"/>
  <path d="M226.1 72.7h.7l.3.3.4.2.2.8v1.1l-.2.7-.4.4-.3.1h-.7l-.3-.1-.4-.4-.1-.7V74l.1-.8.4-.2.3-.3M229.2 74.5h1.2M231 76.3h-1.8v-3.6h1.8" class="st3"/>
  <path d="M221.5 38.8h-7.2" class="st2"/>
  <path d="M227.5 40.3l-1.2-1.7M225.4 40.3v-3.6h1.4l.3.3.3.1.1.4v.5l-.1.3-.3.2-.3.1h-1.4" class="st3"/>
  <path d="M221.5 82h-7.2" class="st2"/>
  <path d="M225.3 83.4l.5.1h.8l.4-.1.1-.2.3-.3v-.4l-.3-.3-.1-.2-.4-.2-.6-.1-.4-.2-.2-.2-.1-.4v-.2l.1-.4.2-.1.4-.3h.8l.6.3M231 83.5l-1.3-1.7M228.9 83.5v-3.6h1.3l.4.3.1.1.3.4v.5l-.3.3-.1.2-.4.1h-1.3M233.7 81.7l.5.1.1.2.3.3v.6l-.3.3-.1.2-.4.1h-1.3v-3.6h1.2l.3.3.2.1.1.4v.2l-.1.4-.2.2-.3.2h-1.2M340.8 5.6h1.7M340.4 6.6l1.2-3.6 1.2 3.6M345.9 6.6h-2M344.9 6.6V3l-.4.5-.4.4-.2.2M317.5 13.2V9.6h.9l.5.2.3.3.2.4.2.7v.5l-.2.6-.2.4-.3.4-.5.1h-.9M321.6 13.2l-.3-.1-.2-.3-.1-.3v-1l.1-.3.2-.2.3-.2h.5l.4.2.2.2.1.3v1l-.1.3-.2.3-.4.1h-.5M325.9 13.2v-1.9l-.2-.3-.3-.2h-.7l-.4.2" class="st3"/>
  <path d="M325.9 13.1l-.3.1h-.9l-.4-.1-.1-.4v-.4l.1-.3.4-.2h.9l.3-.1M327.3 10.8l.9 2.4M329 10.8l-.8 2.4-.4.9-.1.1-.4.2M331.8 13.1l-.4.1h-.6l-.4-.1-.2-.4v-1.4l.2-.3.4-.2h.6l.4.2.1.3v.4l-1.7.3M334.9 13.1l-.4.1h-.7l-.3-.1-.2-.4v-1.4l.2-.3.3-.2h.7l.4.2.1.3v.4l-1.7.3M335.7 13.6h2.8M339.3 13.2V9.6l2 3.6V9.6M343.1 13.2v-2.4M343.1 9.6l-.2.2.2.2.1-.2-.1-.2v.4M344.4 13.2l1.9-2.4M344.4 10.8l1.9 2.4M347.7 13.2v-2.4M347.7 9.6l-.2.2.2.2.2-.2-.2-.2v.4M350.8 13.1l-.4.1h-.6l-.4-.1-.1-.4v-1.4l.1-.3.4-.2h.6l.4.2.1.3v.4l-1.6.3M351.6 13.6h2.8M355.2 13.2V9.6h.9l.5.2.4.3.1.4.2.7v.5l-.2.6-.1.4-.4.4-.5.1h-.9M358.8 13.2v-2.4M358.8 11.5l.2-.3.2-.2.4-.2h.2M361.1 13.2v-2.4M361.1 9.6l-.2.2.2.2.1-.2-.1-.2v.4M362.4 10.8l.9 2.4.9-2.4M366.9 13.1l-.4.1h-.6l-.4-.1-.2-.4v-1.4l.2-.3.4-.2h.6l.4.2.1.3v.4l-1.7.3M368.6 13.2v-2.4M368.6 11.5l.2-.3.1-.2.4-.2h.3" class="st3"/>
  <path d="M603.1 107.2h28.8v21.6h-28.8z" class="st0"/>
  <path d="M603.1 107.2h28.8v21.6h-28.8z" class="st1"/>
  <path d="M603.1 107.2h28.8v21.6h-28.8z" class="st4"/>
  <path d="M626.9 112.6H627.2l.2-.1.1-.1h.2l.1-.1.1-.1.1-.1h.2l.1-.2.1-.1.1-.2v-.1l.1-.1v-.2l.1-.2v-.5l-.1-.2-.1-.2V109.8l-.2-.1v-.1l-.1-.1-.2-.1-.1-.2h-.1l-.1-.1-.2-.1h-.6v1.8z" class="st5"/>
  <path d="M626.9 112.6H627.2l.2-.1.1-.1h.2l.1-.1.1-.1.1-.1h.2l.1-.2.1-.1.1-.2v-.1l.1-.1v-.2l.1-.2v-.5l-.1-.2-.1-.2V109.8l-.2-.1v-.1l-.1-.1-.2-.1-.1-.2h-.1l-.1-.1-.2-.1h-.6v1.8z" class="st4"/>
  <path d="M626.9 112.6H627.2l.2-.1.1-.1h.2l.1-.1.1-.1.1-.1h.2l.1-.2.1-.1.1-.2v-.1l.1-.1v-.2l.1-.2v-.5l-.1-.2-.1-.2V109.8l-.2-.1v-.1l-.1-.1-.2-.1-.1-.2h-.1l-.1-.1-.2-.1h-.6" class="st4"/>
  <path d="M603.1 107.2h28.8v21.6h-28.8z" class="st4"/>
  <path d="M607.1 109h19.8v3.6h-19.8z" class="st5"/>
  <path d="M607.1 109h19.8v3.6h-19.8zM603.1 110.8h3.6M628.3 125.2h-3.6l-3.6-3.6-3.6 3.6h-14.4" class="st4"/>
  <path d="M603.1 110.8h-7.2M600.5 109.8h-2M599.5 109.8v-3.6l-.3.5-.4.4-.3.1M603.1 125.2h-7.2M598.5 121l.2-.2.3-.2h.8l.4.2.1.2.2.3v.3l-.2.6-2 2h2.2" class="st2"/>
  <path d="M636.2 112.5v2.6l-.2.5-.3.3-.5.2h-.4M639.8 116.1h-2.1M638.8 116.1v-3.6l-.4.5-.3.3-.4.2M636.1 119v2.6l-.1.5-.4.4-.5.1h-.4M639.4 122.6v-1.8l-.2-.4-.3-.1h-.7l-.4.1" class="st3"/>
  <path d="M639.4 122.5l-.3.1h-.9l-.4-.1-.1-.4v-.3l.1-.4.4-.1h.9l.3-.2M642.7 122.5l-.4.1h-.6l-.4-.1-.2-.2-.2-.3v-1.1l.2-.3.2-.2.4-.1h.6l.4.1M644.2 122.6V119M644.5 121.3l1 1.3M645.5 120.3l-1.3 1.3M647.1 121.3h2.8M651.6 122.6V119h.9l.5.3.3.2.2.4.1.7v.5l-.1.7-.2.3-.3.4-.5.1h-.9M657.2 122.3l-.1.2-.5.1h-.4l-.5-.1-.4-.4-.1-.3-.2-.7v-.5l.2-.7.1-.4.4-.2.5-.3h.4l.5.3.1.1" class="st3"/>
  <path d="M315.1 172h57.6v43.2h-57.6z" class="st0"/>
  <path d="M315.1 172h57.6v43.2h-57.6z" class="st1"/>
  <path d="M315.1 172h57.6v43.2h-57.6z" class="st4"/>
  <path d="M315.1 172h57.6v43.2h-57.6z" class="st4"/>
  <path d="M372.7 179.2h7.2" class="st2"/>
  <path d="M358.8 179.4h2.8M360.3 180.7V178M362.8 177.1l1.2 3.6 1.2-3.6M366.4 180.7v-3.6M368.1 180.7v-3.6l2.1 3.6v-3.6" class="st3"/>
  <path d="M315.1 179.2h-7.2" class="st2"/>
  <path d="M317.6 179.4h2.8M318.9 180.7V178M321.5 177.1l1.3 3.6 1.2-3.6M325.9 177.1h.6l.4.3.3.2.2.8v1.1l-.2.7-.3.4-.4.1h-.6l-.4-.1-.4-.4-.1-.7v-1.1l.1-.8.4-.2.4-.3M329 177.1v3l.1.3.1.2.4.1h.7l.3-.1.2-.2.2-.3v-3M332.2 177.1h2M333.2 180.7v-3.6" class="st3"/>
  <path d="M372.7 208h7.2" class="st2"/>
  <path d="M362.8 206.2l-.4-.3h-.5l-.5.3-.3.2-.2.4-.1.7v.5l.1.7.2.3.3.4.5.1h.4l.5-.1.2-.2V208h-.7M364.5 209.5v-3.6l2.1 3.6v-3.6M368.3 209.5v-3.6h.8l.5.3.4.2.2.4.2.7v.5l-.2.7-.2.3-.4.4-.5.1h-.8" class="st3"/>
  <path d="M315.1 208h-7.2" class="st2"/>
  <path d="M319.5 206.2l-.3-.3h-.5l-.5.3-.4.2-.2.4-.2.7v.5l.2.7.2.3.4.4.5.1h.2l.6-.1.2-.2V208h-.8M321.2 209.5v-3.6l2.1 3.6v-3.6M325 209.5v-3.6h.9l.5.3.3.2.2.4.1.7v.5l-.1.7-.2.3-.3.4-.5.1h-.9" class="st3"/>
  <path d="M372.7 193.6h7.2" class="st2"/>
  <path d="M357.2 195l.5.1h.8l.3-.1.3-.2.1-.3v-.4l-.1-.3-.3-.2-.3-.2-.7-.1-.3-.2-.2-.2-.1-.4v-.2l.1-.4.2-.1.3-.3h.9l.5.3M360.8 195.1v-3.6M360.8 193.3h2M362.8 195.1v-3.6M364.5 195.1v-3.6h.9l.5.3.4.2.1.4.2.7v.5l-.2.7-.1.3-.4.4-.5.1h-.9M368.1 195.1v-3.6l2.1 3.6v-3.6M341.3 160.7h1.8M341 161.7l1.2-3.6 1.2 3.6M344.2 158.1h2.3l-1.2 1.3h.5l.3.2.2.2.2.3v.9l-.2.3-.2.2-.3.2h-1.1l-.3-.2-.2-.2M328.9 168.2v-3.6l2.1 3.6v-3.6M334.7 167.9l-.1.2-.5.1h-.4l-.5-.1-.4-.4-.1-.4-.2-.6v-.5l.2-.7.1-.4.4-.3.5-.2h.4l.5.2.1.2M336.3 168.2v-3.6M336.3 166.3h2M338.3 168.2v-3.6M341.6 164.6h-.7l-.4.2-.1.2-.4.5-.1.7v1.4l.1.3.2.2.3.1h.8l.3-.1.2-.2.1-.3v-.9l-.1-.4-.2-.1-.3-.2h-.8l-.3.2-.2.1-.1.4M345.4 168.2h-2.1M344.3 168.2v-3.6l-.3.5-.4.4-.3.1M347.6 164.6h.3l.4.2.2.2.1.3.2.7v.8l-.2.8-.1.3-.2.2-.4.1h-.3l-.4-.1-.1-.2-.2-.3-.2-.8v-.8l.2-.7.2-.3.1-.2.4-.2M351 164.6h.3l.4.2.2.2.2.3.1.7v.8l-.1.8-.2.3-.2.2-.4.1h-.3l-.3-.1-.2-.2-.2-.3-.2-.8v-.8l.2-.7.2-.3.2-.2.3-.2M353.7 168.2v-3.6M353.7 166.3h2.1M355.8 168.2v-3.6M357 164.6l1.2 3.6 1.2-3.6" class="st3"/>
  <circle cx="37.9" cy="112.9" r="1.4" class="st2"/>
  <circle cx="37.9" cy="101.4" r="1.4" class="st2"/>
  <path d="M34.3 107.2h-5M34.3 100v14.4M37.9 114.4v7.2M37.9 100v-7.2" class="st2"/>
  <path d="M17.2 104.8l.5.1h.9l.3-.1.2-.2.1-.3v-.4l-.1-.3-.2-.2-.3-.2-.8-.1-.2-.2-.3-.2-.1-.4v-.3l.1-.3.3-.2.2-.2h.9l.5.2M20.4 101.3l.9 3.6.7-2.6.7 2.6.8-3.6M26.8 104.9h-2M25.8 104.9v-3.6l-.4.5-.4.4-.2.1M2.8 112l.5.1h.9l.3-.1.2-.2.2-.3v-.4l-.2-.3-.2-.2-.3-.2-.7-.1-.3-.2-.2-.2-.2-.4v-.3l.2-.3.2-.2.3-.2h.9l.5.2M6 108.5l.9 3.6.7-2.6.7 2.6.8-3.6M9.6 112.5h2.8M13.2 112.1v-3.6h1.4l.4.2.2.2.1.3v.5l-.1.4-.2.2-.4.1h-1.4M18.4 109.7v2.4M16.8 109.7v1.9l.3.4.3.1h.5l.3-.1.2-.2M19.9 112l.4.1h.7l.3-.1.2-.4v-.1l-.2-.4-.3-.2h-.6l-.3-.1-.2-.4v-.1l.2-.4.3-.2h.6l.3.2M23 112.1v-3.6M24.6 112.1v-1.8l-.2-.4-.4-.2h-.5l-.3.2-.2.2" class="st3"/>
  <path d="M167.5 132.4h64.8V226h-64.8z" class="st0"/>
  <path d="M167.5 132.4h64.8V226h-64.8z" class="st1"/>
  <path d="M167.5 132.4h64.8V226h-64.8z" class="st4"/>
  <path d="M167.5 132.4h64.8V226h-64.8z" class="st4"/>
  <path d="M232.3 172h10.8" class="st2"/>
  <path d="M228.7 169.9h.4l.4.3.1.1.2.4.2.6v.9l-.2.7-.2.3-.1.2-.4.1h-.4l-.3-.1-.2-.2-.1-.3-.2-.7v-.9l.2-.6.1-.4.2-.1.3-.3" class="st3"/>
  <path d="M167.5 179.2h-10.8" class="st2"/>
  <path d="M171.9 180.7h-2.1M170.8 180.7v-3.6l-.2.5-.4.4-.4.1M173.3 177.5l.1-.1.4-.3h.9l.2.3.3.1.1.4v.2l-.1.6-2.1 2h2.2" class="st3"/>
  <path d="M167.5 186.4h-10.8" class="st2"/>
  <path d="M171.9 187.9h-2.1M170.8 187.9v-3.6l-.2.5-.4.4-.4.1M173.1 184.3h2.2l-1.1 1.4h.5l.2.2.3.2.1.3v.9l-.1.3-.3.2-.2.1h-1.1l-.3-.1-.2-.2" class="st3"/>
  <path d="M167.5 172h-10.8" class="st2"/>
  <path d="M171.9 173.5h-2.1M170.8 173.5v-3.6l-.2.5-.4.4-.4.1M174.9 171.2v2.3M174.2 169.8l-.9 2.5h2.2" class="st3"/>
  <path d="M232.3 186.4h10.8" class="st2"/>
  <path d="M226.5 187.9h-2M225.5 187.9v-3.6l-.4.5-.3.4-.3.1M229.8 184.3h-1.7l-.2 1.8.2-.2.3-.2h.8l.4.2.2.2.2.3v.9l-.2.3-.2.2-.4.1h-.8l-.3-.1-.2-.2" class="st3"/>
  <path d="M167.5 164.8h-10.8" class="st2"/>
  <path d="M171.9 166.3h-2.1M170.8 166.3v-3.6l-.2.5-.4.4-.4.1M174.9 162.7h-.6l-.4.3-.1.1-.4.5-.1.7v1.4l.1.3.2.2.3.1h.8l.2-.1.3-.2.1-.3v-.9l-.1-.3-.3-.2-.2-.2h-.8l-.3.2-.2.2-.1.3" class="st3"/>
  <path d="M232.3 179.2h10.8" class="st2"/>
  <path d="M227.9 177.5l.2-.1.3-.3h.8l.4.3.2.1.2.4v.2l-.2.6-2.1 2h2.3" class="st3"/>
  <path d="M232.3 193.6h10.8" class="st2"/>
  <path d="M224.6 191.5h2.3l-1.3 1.4h.6l.3.2.2.2.2.3v.9l-.2.3-.2.2-.3.1h-1.1l-.3-.1-.2-.2M227.9 191.5l1.2 3.6 1.2-3.6" class="st3"/>
  <path d="M232.3 164.8h10.8" class="st2"/>
  <path d="M229.6 164v2.3M228.7 162.6l-.8 2.5h2.2" class="st3"/>
  <path d="M232.3 157.6h10.8" class="st2"/>
  <path d="M229.8 155.5h-1.7l-.2 1.8.2-.2.3-.2h.8l.4.2.2.2.2.3v.9l-.2.3-.2.2-.4.1h-.8l-.3-.1-.2-.2" class="st3"/>
  <path d="M167.5 150.4h-10.8" class="st2"/>
  <path d="M169.8 150.9h1.8M169.5 151.9l1.2-3.6 1.2 3.6" class="st3"/>
  <path d="M167.5 157.6h-10.8" class="st2"/>
  <path d="M170 157.3h1.2M171.7 159.1H170v-3.6h1.7M173.3 159.1v-3.6l2 3.6v-3.6" class="st3"/>
  <path d="M167.5 208h-10.8" class="st2"/>
  <path d="M171.9 206.2l-.3-.3h-.5l-.5.3-.4.2-.2.4-.2.7v.5l.2.7.2.3.4.4.5.1h.2l.6-.1.2-.2V208h-.8M173.6 209.5v-3.6l2.1 3.6v-3.6M177.4 209.5v-3.6h.9l.5.3.3.2.2.4.1.7v.5l-.1.7-.2.3-.3.4-.5.1h-.9" class="st3"/>
  <path d="M217.9 226v10.8" class="st2"/>
  <path d="M216.1 221.5l-.2.4v.5l.2.5.3.3.4.2.7.2h.5l.7-.2.3-.2.4-.3.1-.5v-.3l-.1-.6-.2-.2H218v.8M219.5 219.8h-3.6l3.6-2.1h-3.6M219.5 216h-3.6v-.8l.2-.5.3-.4.4-.2.7-.1h.5l.7.1.3.2.4.4.1.5v.8" class="st3"/>
  <path d="M232.3 208h10.8" class="st2"/>
  <path d="M222.4 206.2l-.4-.3h-.5l-.5.3-.3.2-.2.4-.1.7v.5l.1.7.2.3.3.4.5.1h.4l.5-.1.2-.2V208h-.7M224.1 209.5v-3.6l2.1 3.6v-3.6M227.9 209.5v-3.6h.8l.5.3.4.2.2.4.2.7v.5l-.2.7-.2.3-.4.4-.5.1h-.8" class="st3"/>
  <path d="M232.3 200.8h10.8" class="st2"/>
  <path d="M222.9 202.3h-1.7v-3.6M224.1 202.3v-3.6h.9l.5.3.4.2.1.4.2.7v.5l-.2.7-.1.3-.4.4-.5.1h-.9M228.4 198.7h.7l.4.3.3.2.2.8v1.1l-.2.7-.3.4-.4.1h-.7l-.3-.1-.4-.4-.1-.7V200l.1-.8.4-.2.3-.3" class="st3"/>
  <path d="M167.5 143.2h-10.8" class="st2"/>
  <path d="M172.1 144.7l-1.3-1.7M170 144.7v-3.6h1.3l.4.3.2.1.2.4v.5l-.2.3-.2.2-.4.1H170M173.4 144.6l.5.1h.9l.4-.1.1-.2.2-.3v-.4l-.2-.3-.1-.2-.4-.2-.6-.1-.4-.2-.2-.2-.2-.4v-.2l.2-.4.2-.1.4-.3h.7l.6.3M176.5 141.1h2M177.5 144.7v-3.6" class="st3"/>
  <path d="M196.3 226v10.8" class="st2"/>
  <path d="M197.9 221.3l-1.7 1.3M197.9 223.4h-3.6v-1.3l.2-.4.2-.2.3-.2h.5l.4.2.1.2.2.4v1.3M194.3 220.1l3.6-2.4M194.3 217.7l3.6 2.4" class="st3"/>
  <path d="M232.3 150.4h10.8" class="st2"/>
  <path d="M226.5 151.9l-1.2-1.7M224.5 151.9v-3.6h1.4l.3.3.2.1.1.4v.5l-.1.3-.2.2-.3.1h-1.4M227.7 148.3l2.4 3.6M230.1 148.3l-2.4 3.6" class="st3"/>
  <path d="M189.1 226v10.8" class="st2"/>
  <path d="M187.1 223.9v-2M190.7 222.9h-3.6M187.1 221l3.6-2.4M187.1 218.6l3.6 2.4" class="st3"/>
  <path d="M232.3 143.2h10.8" class="st2"/>
  <path d="M224.8 141.1h2.1M225.9 144.7v-3.6M227.7 141.1l2.4 3.6M230.1 141.1l-2.4 3.6" class="st3"/>
  <path d="M167.5 193.6h-10.8" class="st2"/>
  <path d="M169.5 191.5l1.2 3.6 1.2-3.6M173.1 193.8h2.7M174.4 195.1v-2.7" class="st3"/>
  <path d="M203.5 226v10.8" class="st2"/>
  <path d="M201.5 223.9l3.6-1.2-3.6-1.2M203.7 220.3v-2.7M205.1 219h-2.7" class="st3"/>
  <path d="M167.5 200.8h-10.8" class="st2"/>
  <path d="M169.5 198.7l1.2 3.6 1.2-3.6M174.3 200.5l.5.1.1.2.3.3v.6l-.3.3-.1.2-.4.1h-1.3v-3.6h1.2l.4.3.1.1.1.4v.2l-.1.4-.1.2-.4.2h-1.2M178.3 202.3v-1.8l-.3-.4-.2-.1h-.8l-.3.1" class="st3"/>
  <path d="M178.3 202.2l-.4.1h-.9l-.3-.1-.2-.4v-.3l.2-.4.3-.1h.9l.4-.2M179.4 200h1.4M180 198.7v3.1l.1.4.4.1h.3" class="st3"/>
  <path d="M181.9 226v10.8M180.9 235.7l2.1 2.1M183 235.7l-2.1 2.1M210.7 226v10.8M209.7 235.7l2.1 2.1M211.8 235.7l-2.1 2.1" class="st2"/>
  <path d="M197.3 121.1h1.8M197 122.1l1.2-3.6 1.2 3.6M200.4 118.8l.2-.1.3-.2h.9l.3.2.2.1.2.4v.3l-.2.5-2.1 2.1h2.3M151.7 127.6h1.7M151.4 128.6l1.2-3.6 1.2 3.6M156.5 128.6V125M156.5 128.5l-.3.1h-.7l-.4-.1-.1-.2-.2-.3v-1.1l.2-.3.1-.2.4-.2h.7l.3.2M159.8 128.6v-1.9l-.2-.3-.3-.2h-.7l-.4.2" class="st3"/>
  <path d="M159.8 128.5l-.3.1h-.9l-.4-.1-.1-.4v-.4l.1-.3.4-.2h.9l.3-.1M161 126.2h1.3M161.5 128.6v-3.1l.2-.3.3-.2h.3M163.6 128.6v-2.4M163.6 126.9l.1-.3.2-.2.3-.2h.4M167.3 126.2v2.4M165.8 126.2v1.9l.1.4.4.1h.5l.4-.1.1-.2M169 128.6v-2.4M169 125l-.1.2.1.2.2-.2-.2-.2v.4M170.3 126.2h1.3M170.8 125v3.1l.1.4.4.1h.3M171.9 129h2.8M175.5 128.6V125M175.5 126.7h2.1M177.6 128.6V125M179.3 125v3l.2.3.2.2.3.1h.7l.4-.1.1-.2.2-.3v-3M182.7 125h2.5l-2.5 3.6h2.5M186.2 125h2.4l-2.4 3.6h2.4M189.8 127.6h1.7M189.4 128.6l1.2-3.6 1.3 3.6M193 128.6V125M193 126.7h2.1M195.1 128.6V125M196 129h2.7M199.6 126.7h1.1M201.3 128.6h-1.7V125h1.7M202.7 128.5l.5.1h.8l.3-.1.2-.2.2-.3v-.4l-.2-.4-.2-.1-.3-.2-.7-.2-.3-.1-.2-.2-.1-.4v-.3l.1-.3.2-.2.3-.2h.9l.5.2M206.3 128.6V125h1.3l.3.2.2.2.2.3v.5l-.2.4-.2.1-.3.2h-1.3M210.4 126.6l-.4-.2-.1-.2-.2-.3v-.2l.2-.3.1-.2.4-.2h.6l.4.2.1.2.2.3v.2l-.2.3-.1.2-.4.2h-.6l-.4.1-.1.2-.2.3v.8l.2.3.1.2.4.1h.6l.4-.1.1-.2.2-.3v-.8l-.2-.3-.1-.2-.4-.1M213.1 125.4l.2-.2.3-.2h.9l.3.2.2.2.1.3v.3l-.1.6-2.1 2h2.2M218.2 125h-.6l-.4.2-.1.2-.4.5-.2.7v1.4l.2.3.2.2.3.1h.7l.3-.1.2-.2.2-.3v-.9l-.2-.4-.2-.1-.3-.2h-.7l-.3.2-.2.1-.2.4M221.7 125h-.7l-.3.2-.2.2-.4.5-.2.7v1.4l.2.3.2.2.4.1h.6l.4-.1.1-.2.2-.3v-.9l-.2-.4-.1-.1-.4-.2h-.6l-.4.2-.2.1-.2.4M222.7 129h2.7M226.3 128.6V125M226.3 126.4l.3-.2h.7l.4.2.2.2.1.3v1.1l-.1.3-.2.2-.4.1h-.7l-.3-.1M229.5 128.6v-2.4M229.5 126.9l.2-.3.2-.2.3-.2h.4M233.1 128.5l-.3.1h-.7l-.3-.1-.2-.4v-1.4l.2-.3.3-.2h.7l.3.2.2.3v.4l-1.7.3M236.4 128.6v-1.9l-.2-.3-.3-.2h-.7l-.3.2" class="st3"/>
  <path d="M236.4 128.5l-.3.1h-.9l-.3-.1-.2-.4v-.4l.2-.3.3-.2h.9l.3-.1M238.1 128.6V125M238.5 127.2l1 1.4M239.5 126.2l-1.4 1.4M241.5 128.6l-.3-.1-.2-.2-.1-.3v-1.1l.1-.3.2-.2.3-.2h.6l.3.2.2.2.2.3v1.1l-.2.3-.2.2-.3.1h-.6M245.9 126.2v2.4M244.3 126.2v1.9l.2.4.3.1h.5l.4-.1.2-.2M247 126.2h1.4M247.5 125v3.1l.2.4.4.1h.3" class="st3"/>
  <path d="M70.3 136h7.2v14.4h-7.2z" class="st0"/>
  <path d="M70.3 136h7.2v14.4h-7.2z" class="st1"/>
  <path d="M70.3 136h7.2v14.4h-7.2z" class="st2"/>
  <path d="M70.3 136h7.2v14.4h-7.2zM73.9 139.6v-7.2M73.9 146.8v7.2" class="st2"/>
  <path d="M61.6 137.7v2.6l-.2.5-.3.3-.5.2h-.3M63.3 141.3v-3.6h1.4l.3.2.2.1.2.4v.5l-.2.4-.2.1-.3.2h-1.4M68.8 141.3h-2.1M67.8 141.3v-3.6l-.3.5-.4.3-.4.2M55.4 148.1l-.2.2-.5.2h-.4l-.5-.2-.3-.3-.2-.4-.2-.6v-.5l.2-.8.2-.3.3-.3.5-.2h.4l.5.2.2.1M57.6 144.9h.7l.4.2.3.3.2.7v1.2l-.2.7-.3.3-.4.2h-.7l-.3-.2-.4-.3-.2-.7v-1.2l.2-.7.4-.3.3-.2M60.7 148.5v-3.6l2.1 3.6v-3.6M64.5 148.5v-3.6l2 3.6v-3.6" class="st3"/>
  <path d="M109.9 211.6h7.2V226h-7.2z" class="st0"/>
  <path d="M109.9 211.6h7.2V226h-7.2z" class="st1"/>
  <path d="M109.9 211.6h7.2V226h-7.2z" class="st2"/>
  <path d="M109.9 211.6h7.2V226h-7.2zM113.5 215.2V208M113.5 222.4v7.2" class="st2"/>
  <path d="M101.2 213.3v2.6l-.2.5-.3.3-.5.2h-.3M102.9 216.9v-3.6h1.4l.3.2.2.1.2.4v.5l-.2.4-.2.1-.3.2h-1.4M106.3 213.6l.2-.1.3-.2h.9l.4.2.1.1.2.4v.3l-.2.6-2 2h2.2M95 223.7l-.2.2-.5.2h-.4l-.5-.2-.3-.3-.2-.4-.2-.6v-.5l.2-.8.2-.3.3-.3.5-.2h.4l.5.2.2.1M97.2 220.5h.7l.4.2.3.3.2.7v1.2l-.2.7-.3.3-.4.2h-.7l-.3-.2-.4-.3-.2-.7v-1.2l.2-.7.4-.3.3-.2M100.3 224.1v-3.6l2.1 3.6v-3.6M104.1 224.1v-3.6l2 3.6v-3.6" class="st3"/>
  <path d="M520.3 107.2h14.4v7.2h-14.4z" class="st0"/>
  <path d="M520.3 107.2h14.4v7.2h-14.4z" class="st1"/>
  <path d="M520.3 107.2h14.4v7.2h-14.4z" class="st2"/>
  <path d="M520.3 107.2h14.4v7.2h-14.4zM523.9 110.8h-7.2M531.1 110.8h7.2" class="st2"/>
  <path d="M524.5 92.7v2.6l-.2.5-.3.3-.5.2h-.4M526.2 96.3v-3.6h1.4l.3.2.2.1.2.4v.5l-.2.4-.2.1-.3.2h-1.4M529.5 92.7h2.2l-1.2 1.4h.5l.3.2.2.1.2.4v.8l-.2.3-.2.2-.3.2h-1l-.4-.2-.1-.2M522.9 102.5l-.1.2-.5.1h-.4l-.5-.1-.3-.4-.2-.3-.2-.7v-.5l.2-.7.2-.4.3-.2.5-.3h.4l.5.3.1.1M525.2 99.2h.7l.3.3.3.2.2.8v1.1l-.2.7-.3.4-.3.1h-.7l-.3-.1-.4-.4-.2-.7v-1.1l.2-.8.4-.2.3-.3M528.3 102.8v-3.6l2 3.6v-3.6M532.1 102.8v-3.6l2 3.6v-3.6" class="st3"/>
  <path d="M459.1 172h57.6v43.2h-57.6z" class="st0"/>
  <path d="M459.1 172h57.6v43.2h-57.6z" class="st1"/>
  <path d="M459.1 172h57.6v43.2h-57.6z" class="st4"/>
  <path d="M459.1 172h57.6v43.2h-57.6z" class="st4"/>
  <path d="M516.7 179.2h7.2" class="st2"/>
  <path d="M502.8 179.4h2.8M504.3 180.7V178M506.8 177.1l1.2 3.6 1.2-3.6M510.4 180.7v-3.6M512.1 180.7v-3.6l2.1 3.6v-3.6" class="st3"/>
  <path d="M459.1 179.2h-7.2" class="st2"/>
  <path d="M461.6 179.4h2.8M462.9 180.7V178M465.5 177.1l1.3 3.6 1.2-3.6M469.9 177.1h.6l.4.3.3.2.2.8v1.1l-.2.7-.3.4-.4.1h-.6l-.4-.1-.4-.4-.1-.7v-1.1l.1-.8.4-.2.4-.3M473 177.1v3l.1.3.1.2.4.1h.7l.3-.1.2-.2.2-.3v-3M476.2 177.1h2M477.2 180.7v-3.6" class="st3"/>
  <path d="M516.7 208h7.2" class="st2"/>
  <path d="M506.8 206.2l-.4-.3h-.5l-.5.3-.3.2-.2.4-.1.7v.5l.1.7.2.3.3.4.5.1h.4l.5-.1.2-.2V208h-.7M508.5 209.5v-3.6l2.1 3.6v-3.6M512.3 209.5v-3.6h.8l.5.3.4.2.2.4.2.7v.5l-.2.7-.2.3-.4.4-.5.1h-.8" class="st3"/>
  <path d="M459.1 208h-7.2" class="st2"/>
  <path d="M463.5 206.2l-.3-.3h-.5l-.5.3-.4.2-.2.4-.2.7v.5l.2.7.2.3.4.4.5.1h.2l.6-.1.2-.2V208h-.8M465.2 209.5v-3.6l2.1 3.6v-3.6M469 209.5v-3.6h.9l.5.3.3.2.2.4.1.7v.5l-.1.7-.2.3-.3.4-.5.1h-.9M485.3 160.7h1.8M485 161.7l1.2-3.6 1.2 3.6M490.1 159.3v2.4M489.3 157.9l-.9 2.5h2.3M469.6 168.2v-3.6h.9l.5.2.4.3.1.4.2.7v.5l-.2.6-.1.4-.4.4-.5.1h-.9M475.3 168.2l-1.2-1.7M473.2 168.2v-3.6h1.4l.4.2.1.2.2.3v.5l-.2.4-.1.1-.4.2h-1.4M477.6 164.6h.6l.4.2.3.3.2.7v1.2l-.2.7-.3.4-.4.1h-.6l-.4-.1-.4-.4-.1-.7v-1.2l.1-.7.4-.3.4-.2M480.7 168.2v-3.6M482.7 168.2l-1.5-2M482.7 164.6l-2 2.1M483.4 168.6h2.7M488.7 168.2H487v-3.6M489.9 168.2v-3.6l1.2 2.6 1.2-2.6v3.6M493.8 165l.2-.2.3-.2h.9l.4.2.1.2.2.3v.3l-.2.6-2.1 2h2.3M499.2 164.6h-1.8l-.2 1.7.2-.1.4-.2h.9l.2.2.3.1.1.4v.9l-.1.3-.3.2-.2.1h-.9l-.4-.1-.2-.2M501 168.2h.7l.3-.1.3-.2.2-.6.3-.6v-1.4l-.3-.3-.1-.2-.4-.2h-.6l-.4.2-.2.2-.1.3v.9l.1.3.2.2.4.1h.6l.4-.1.1-.2.3-.3M505.9 164.6h-.8l-.3.2-.2.2-.3.5-.2.7v1.4l.2.3.1.2.4.1h.7l.4-.1.1-.2.1-.3v-.9l-.1-.4-.1-.1-.4-.2h-.7l-.4.2-.1.1-.2.4" class="st3"/>
  <path d="M556.3 154h7.2v14.4h-7.2z" class="st0"/>
  <path d="M556.3 154h7.2v14.4h-7.2z" class="st1"/>
  <path d="M556.3 154h7.2v14.4h-7.2z" class="st2"/>
  <path d="M556.3 154h7.2v14.4h-7.2zM559.9 157.6v-7.2M559.9 164.8v7.2" class="st2"/>
  <path d="M568.4 156v2.6l-.3.5-.2.3-.6.2h-.3M570.1 159.6V156h1.4l.2.2.3.1.1.4v.5l-.1.4-.3.1-.2.1h-1.4M575.2 157.2v2.4M574.3 155.8l-.8 2.5h2.2M569.3 165.8l-.2.2-.5.1h-.3l-.5-.1-.4-.4-.1-.3-.2-.7v-.5l.2-.7.1-.4.4-.3.5-.2h.3l.5.2.2.2M571.5 162.5h.7l.4.2.3.3.2.7v1.2l-.2.7-.3.4-.4.1h-.7l-.3-.1-.3-.4-.2-.7v-1.2l.2-.7.3-.3.3-.2M574.6 166.1v-3.6l2.1 3.6v-3.6M578.4 166.1v-3.6l2.1 3.6v-3.6" class="st3"/>
  <path d="M113.5 24.4V208M91.9 179.2h64.8M120.7 89.2V208M127.9 31.6v79.2M135.1 200.8h21.6M135.1 247.6h309.6M113.5 247.6h21.6M113.5 229.6v18M135.1 200.8v46.8M120.7 208h36M73.9 186.4h82.8M106.3 164.8h50.4M99.1 67.6V172M113.5 24.4h100.8M127.9 31.6h86.4M120.7 89.2h93.6M91.9 60.4h122.4M99.1 67.6h115.2M106.3 74.8h108M91.9 179.2V60.4M106.3 164.8v-90M37.9 262V121.6M545.5 125.2V208M415.9 110.8v68.4M595.9 125.2v14.4M451.9 179.2h-7.2M487.9 110.8v36M487.9 146.8h50.4M538.3 146.8v32.4M127.9 110.8h180M487.9 110.8h28.8M37.9 262h522M307.9 179.2v-68.4M444.7 179.2v68.4M415.9 110.8h72M538.3 110.8h57.6M73.9 132.4V92.8M73.9 186.4V154M523.9 179.2h14.4M73.9 92.8h-36M415.9 179.2h-36M379.9 208h72M99.1 172h57.6M559.9 172v90M559.9 139.6h36M559.9 139.6v10.8M545.5 125.2h50.4M545.5 208h-21.6M243.1 208h64.8" class="st6"/>
  <path d="M562.9 109.8h-2.1M561.8 109.8v-3.6l-.3.5-.3.4-.4.1M564.5 109.8h.8l.3-.1.2-.2.3-.5.2-.7v-1.4l-.2-.3-.2-.2-.3-.2h-.7l-.4.2-.1.2-.1.3v.9l.1.3.1.2.4.2h.7l.3-.2.2-.2.2-.3M568.5 106.2h.4l.3.2.2.2.1.3.2.7v.9l-.2.7-.1.3-.2.2-.3.1h-.4l-.4-.1-.1-.2-.1-.3-.3-.7v-.9l.3-.7.1-.3.1-.2.4-.2M505.1 106.2h-1.8l-.1 1.7.1-.1.4-.2h.9l.3.2.2.1.2.4v.9l-.2.3-.2.2-.3.1h-.9l-.4-.1-.1-.2M507.5 106.2h.3l.4.2.1.2.2.3.2.7v.9l-.2.7-.2.3-.1.2-.4.1h-.3l-.3-.1-.3-.2-.1-.3-.1-.7v-.9l.1-.7.1-.3.3-.2.3-.2M283.6 257.8l.1-.2.4-.2h.9l.3.2.2.2.2.3v.3l-.2.6-2 2h2.2M289.1 261h-2M288.1 261v-3.6l-.4.5-.4.4-.2.1M291.3 257.4h.4l.3.2.2.2.1.3.2.7v.9l-.2.7-.1.3-.2.2-.3.1h-.4l-.4-.1-.1-.2-.1-.3-.3-.7v-.9l.3-.7.1-.3.1-.2.4-.2M576.9 136.2v2.4M576.1 134.9l-.9 2.5h2.2M579.5 135h.3l.4.2.1.2.2.3.2.7v.9l-.2.7-.2.3-.1.2-.4.1h-.3l-.3-.1-.3-.2-.1-.3-.1-.7v-.9l.1-.7.1-.3.3-.2.3-.2M512.1 143.4v2.4M511.3 142.1l-.9 2.5h2.2M515.7 142.2H514l-.1 1.7.1-.1.4-.2h.8l.3.2.2.1.2.4v.9l-.2.3-.2.2-.3.1h-.8l-.4-.1-.1-.2M568 121l.1-.2.4-.2h.9l.3.2.2.2.2.3v.3l-.2.6-2 2h2.2M572.3 120.6h.3l.4.2.1.2.2.3.2.7v.9l-.2.7-.2.3-.1.2-.4.1h-.3l-.3-.1-.3-.2-.1-.3-.1-.7v-.9l.1-.7.1-.3.3-.2.3-.2M575.7 120.6h.4l.3.2.2.2.1.3.2.7v.9l-.2.7-.1.3-.2.2-.3.1h-.4l-.4-.1-.1-.2-.1-.3-.3-.7v-.9l.3-.7.1-.3.1-.2.4-.2M407.7 204.6v2.4M406.9 203.3l-.9 2.5h2.2M410.3 203.4h.3l.4.2.1.2.2.3.2.7v.9l-.2.7-.2.3-.1.2-.4.1h-.3l-.3-.1-.3-.2-.1-.3-.1-.7v-.9l.1-.7.1-.3.3-.2.3-.2M269.1 203.4h2.2l-1.2 1.4h.5l.3.2.2.1.2.4v.9l-.2.3-.2.2-.3.1h-1l-.4-.1-.1-.2M273.5 203.4h.3l.4.2.1.2.2.3.2.7v.9l-.2.7-.2.3-.1.2-.4.1h-.3l-.3-.1-.3-.2-.1-.3-.1-.7v-.9l.1-.7.1-.3.3-.2.3-.2M393.3 175.8v2.4M392.5 174.5l-.9 2.5h2.2M396.9 174.6h-1.7l-.1 1.7.1-.1.4-.2h.8l.3.2.2.1.2.4v.9l-.2.3-.2.2-.3.1h-.8l-.4-.1-.1-.2M53.9 89.8l-.3-.2-.3-.2-.1-.3v-.2l.1-.3.3-.2.3-.2h.7l.3.2.2.2.2.3v.2l-.2.3-.2.2-.3.2h-.7l-.3.1-.3.2-.1.4v.7l.1.3.3.2.3.1h.7l.3-.1.2-.2.2-.3v-.7l-.2-.4-.2-.2-.3-.1M56.4 88.2h2.3l-1.2 1.4h.5l.3.2.2.1.2.4v.9l-.2.3-.2.2-.3.1h-1.1l-.2-.1-.3-.2M134.5 185.4h-2.1M133.4 185.4v-3.6l-.3.5-.3.4-.4.1M137.5 181.8h-.6l-.4.2-.1.2-.4.5-.1.7v1.4l.1.3.1.2.4.1h.7l.3-.1.2-.2.2-.3v-.9l-.2-.4-.2-.1-.3-.2h-.7l-.4.2-.1.1-.1.4M141.1 181.8h-1.6l-.3 1.7.3-.1.2-.2h.9l.4.2.1.1.2.4v.9l-.2.3-.1.2-.4.1h-.9l-.2-.1-.3-.2M168.4 85l.1-.2.4-.2h.9l.3.2.2.2.2.3v.3l-.2.6-2 2h2.2M172.7 84.6h.3l.4.2.1.2.2.3.2.7v.9l-.2.7-.2.3-.1.2-.4.1h-.3l-.3-.1-.3-.2-.1-.3-.1-.7V86l.1-.7.1-.3.3-.2.3-.2M176.1 84.6h.4l.3.2.2.2.1.3.2.7v.9l-.2.7-.1.3-.2.2-.3.1h-.4l-.4-.1-.1-.2-.1-.3-.3-.7V86l.3-.7.1-.3.1-.2.4-.2M168.4 27.4l.1-.2.4-.2h.9l.3.2.2.2.2.3v.3l-.2.6-2 2h2.2M173.9 30.6h-2M172.9 30.6V27l-.4.5-.4.4-.2.1M176.1 27h.4l.3.2.2.2.1.3.2.7v.9l-.2.7-.1.3-.2.2-.3.1h-.4l-.4-.1-.1-.2-.1-.3-.3-.7v-.9l.3-.7.1-.3.1-.2.4-.2M170.5 23.4h-2.1M169.4 23.4v-3.6l-.3.5-.3.4-.4.1M173.5 19.8h-.6l-.4.2-.1.2-.4.5-.1.7v1.4l.1.3.1.2.4.1h.7l.3-.1.2-.2.2-.3v-.9l-.2-.4-.2-.1-.3-.2h-.7l-.4.2-.1.1-.1.4M176.1 19.8h.4l.3.2.2.2.1.3.2.7v.9l-.2.7-.1.3-.2.2-.3.1h-.4l-.4-.1-.1-.2-.1-.3-.3-.7v-.9l.3-.7.1-.3.1-.2.4-.2M285.7 246.6h-2.1M284.6 246.6V243l-.3.5-.3.4-.4.1M287.9 243h.3l.4.2.1.2.2.3.2.7v.9l-.2.7-.2.3-.1.2-.4.1h-.3l-.3-.1-.3-.2-.1-.3-.1-.7v-.9l.1-.7.1-.3.3-.2.3-.2M291.3 243h.4l.3.2.2.2.1.3.2.7v.9l-.2.7-.1.3-.2.2-.3.1h-.4l-.4-.1-.1-.2-.1-.3-.3-.7v-.9l.3-.7.1-.3.1-.2.4-.2M121.5 243h2.2l-1.2 1.4h.5l.3.2.2.1.2.4v.9l-.2.3-.2.2-.3.1h-1l-.4-.1-.1-.2M125.9 243h.3l.4.2.1.2.2.3.2.7v.9l-.2.7-.2.3-.1.2-.4.1h-.3l-.3-.1-.3-.2-.1-.3-.1-.7v-.9l.1-.7.1-.3.3-.2.3-.2M134.5 163.8h-2.1M133.4 163.8v-3.6l-.3.5-.3.4-.4.1M137.5 160.2h-.6l-.4.2-.1.2-.4.5-.1.7v1.4l.1.3.1.2.4.1h.7l.3-.1.2-.2.2-.3v-.9l-.2-.4-.2-.1-.3-.2h-.7l-.4.2-.1.1-.1.4M141.1 160.2h-1.6l-.3 1.7.3-.1.2-.2h.9l.4.2.1.1.2.4v.9l-.2.3-.1.2-.4.1h-.9l-.2-.1-.3-.2M134.5 171h-2.1M133.4 171v-3.6l-.3.5-.3.4-.4.1M137.5 167.4h-.6l-.4.2-.1.2-.4.5-.1.7v1.4l.1.3.1.2.4.1h.7l.3-.1.2-.2.2-.3v-.9l-.2-.4-.2-.1-.3-.2h-.7l-.4.2-.1.1-.1.4M141.1 167.4h-1.6l-.3 1.7.3-.1.2-.2h.9l.4.2.1.1.2.4v.9l-.2.3-.1.2-.4.1h-.9l-.2-.1-.3-.2M134.5 178.2h-2.1M133.4 178.2v-3.6l-.3.5-.3.4-.4.1M137.5 174.6h-.6l-.4.2-.1.2-.4.5-.1.7v1.4l.1.3.1.2.4.1h.7l.3-.1.2-.2.2-.3v-.9l-.2-.4-.2-.1-.3-.2h-.7l-.4.2-.1.1-.1.4M141.1 174.6h-1.6l-.3 1.7.3-.1.2-.2h.9l.4.2.1.1.2.4v.9l-.2.3-.1.2-.4.1h-.9l-.2-.1-.3-.2M144.9 197.4v2.4M144.1 196.1l-.9 2.5h2.2M148.5 196.2h-1.7l-.1 1.7.1-.1.4-.2h.8l.3.2.2.1.2.4v.9l-.2.3-.2.2-.3.1h-.8l-.4-.1-.1-.2" class="st7"/>
  <circle cx="135.1" cy="247.6" r="1.4" class="st8"/>
  <circle cx="135.1" cy="247.6" r="1.4" class="st9"/>
  <circle cx="487.9" cy="110.8" r="1.4" class="st8"/>
  <circle cx="487.9" cy="110.8" r="1.4" class="st9"/>
  <path d="M594.5 125.2c0-.8.6-1.4 1.4-1.4s1.4.6 1.4 1.4c0 .8-.6 1.4-1.4 1.4s-1.4-.6-1.4-1.4z" class="st8"/>
  <path d="M594.5 125.2c0-.8.6-1.4 1.4-1.4s1.4.6 1.4 1.4c0 .8-.6 1.4-1.4 1.4s-1.4-.6-1.4-1.4z" class="st9"/>
  <path d="M241.4 177.4l3.5 3.5M244.9 177.4l-3.5 3.5M241.4 163l3.5 3.5M244.9 163l-3.5 3.5M241.4 170.2l3.5 3.5M244.9 170.2l-3.5 3.5M378.2 191.8l3.5 3.5M381.7 191.8l-3.5 3.5M241.4 184.6l3.5 3.5M244.9 184.6l-3.5 3.5M241.4 191.8l3.5 3.5M244.9 191.8l-3.5 3.5M212.6 37l3.5 3.5M216.1 37l-3.5 3.5M241.4 155.8l3.5 3.5M244.9 155.8l-3.5 3.5M241.4 148.6l3.5 3.5M244.9 148.6l-3.5 3.5M241.4 141.4l3.5 3.5M244.9 141.4l-3.5 3.5M155 191.8l3.5 3.5M158.5 191.8l-3.5 3.5M155 141.4l3.5 3.5M158.5 141.4l-3.5 3.5M155 148.6l3.5 3.5M158.5 148.6l-3.5 3.5M155 155.8l3.5 3.5M158.5 155.8l-3.5 3.5M241.4 199l3.5 3.5M244.9 199l-3.5 3.5M212.6 51.4l3.5 3.5M216.1 51.4l-3.5 3.5M212.6 44.2l3.5 3.5M216.1 44.2l-3.5 3.5M212.6 80.2l3.5 3.5M216.1 80.2l-3.5 3.5" class="st10"/>
</svg>
